<?xml version="1.0" encoding="UTF-8" standalone="no"?><!DOCTYPE svg PUBLIC "-//W3C//DTD SVG 1.1//EN" "http://www.w3.org/Graphics/SVG/1.1/DTD/svg11.dtd"><svg width="100%" height="100%" viewBox="0 0 2592 1873" version="1.1" xmlns="http://www.w3.org/2000/svg" xmlns:xlink="http://www.w3.org/1999/xlink" xml:space="preserve" style="fill-rule:evenodd;clip-rule:evenodd;stroke-linejoin:round;stroke-miterlimit:1.41421;"><rect id="Artboard1" x="0" y="0" width="2592" height="1872.84" style="fill:none;"/><clipPath id="_clip1"><rect x="0" y="0" width="2592" height="1872.84"/></clipPath><g clip-path="url(#_clip1)"><rect x="-113.159" y="69.257" width="2821.06" height="1752.1" style="fill:url(#_Linear2);"/><path d="M1629.19,372.934c-2218.09,21.081 -3985.97,-232.312 -3945.43,-565.502c40.544,-333.19 1874.26,-620.813 4092.35,-641.894c2218.09,-21.081 3985.97,232.312 3945.43,565.502c-40.544,333.19 -1874.26,620.813 -4092.35,641.894Z" style="fill:url(#_Linear3);"/><path d="M1406.81,1561.19c2214.86,121.422 3962.82,487.836 3900.96,817.735c-61.86,329.898 -1910.27,499.154 -4125.13,377.732c-2214.86,-121.421 -3962.82,-487.836 -3900.96,-817.734c61.86,-329.898 1910.27,-499.154 4125.13,-377.733Z" style="fill:url(#_Linear4);"/><path d="M1580.51,325.74c-2218.08,21.08 -3985.97,-232.313 -3945.43,-565.503c40.544,-333.19 1874.26,-620.813 4092.35,-641.893c2218.09,-21.081 3985.97,232.312 3945.43,565.502c-40.544,333.19 -1874.26,620.813 -4092.35,641.894Z" style="fill:#fff;"/><path d="M1452.35,1611.41c2214.86,121.421 3962.82,487.836 3900.96,817.734c-61.86,329.898 -1910.27,499.154 -4125.13,377.733c-2214.86,-121.422 -3962.82,-487.836 -3900.96,-817.734c61.859,-329.898 1910.27,-499.155 4125.13,-377.733Z" style="fill:#fff;"/><g id="elipsy"><circle cx="2602.45" cy="2363.81" r="1350.39" style="fill:url(#_Linear5);"/><circle cx="1233.5" cy="-507.229" r="1296.65" style="fill:url(#_Linear6);"/></g></g><defs><linearGradient id="_Linear2" x1="0" y1="0" x2="1" y2="0" gradientUnits="userSpaceOnUse" gradientTransform="matrix(2552.73,1549.04,-1549.04,2552.73,110.205,214.298)"><stop offset="0%" style="stop-color:#39c9f2;stop-opacity:1"/><stop offset="100%" style="stop-color:#053cab;stop-opacity:1"/><stop offset="100%" style="stop-color:#053cab;stop-opacity:1"/></linearGradient><linearGradient id="_Linear3" x1="0" y1="0" x2="1" y2="0" gradientUnits="userSpaceOnUse" gradientTransform="matrix(1035.62,2354.91,-2762.61,835.623,1877.6,-757.495)"><stop offset="0%" style="stop-color:#fff;stop-opacity:0"/><stop offset="100%" style="stop-color:#fff;stop-opacity:1"/></linearGradient><linearGradient id="_Linear4" x1="0" y1="0" x2="1" y2="0" gradientUnits="userSpaceOnUse" gradientTransform="matrix(-882.231,-2416.56,2810.58,-656.466,1086.31,2673.33)"><stop offset="0%" style="stop-color:#fff;stop-opacity:0"/><stop offset="100%" style="stop-color:#fff;stop-opacity:1"/></linearGradient><linearGradient id="_Linear5" x1="0" y1="0" x2="1" y2="0" gradientUnits="userSpaceOnUse" gradientTransform="matrix(-1215.35,-2096.32,2096.32,-1215.35,3046.15,3339.42)"><stop offset="0%" style="stop-color:#fff;stop-opacity:0.115942"/><stop offset="100%" style="stop-color:#fff;stop-opacity:0.0431941"/></linearGradient><linearGradient id="_Linear6" x1="0" y1="0" x2="1" y2="0" gradientUnits="userSpaceOnUse" gradientTransform="matrix(-1166.99,-2012.9,2012.9,-1166.99,1659.54,429.561)"><stop offset="0%" style="stop-color:#fff;stop-opacity:0.115942"/><stop offset="100%" style="stop-color:#fff;stop-opacity:0.0431941"/></linearGradient></defs></svg>