<?xml version="1.0" encoding="UTF-8" standalone="no"?><!DOCTYPE svg PUBLIC "-//W3C//DTD SVG 1.1//EN" "http://www.w3.org/Graphics/SVG/1.1/DTD/svg11.dtd"><svg width="100%" height="100%" viewBox="0 0 2592 1873" version="1.1" xmlns="http://www.w3.org/2000/svg" xmlns:xlink="http://www.w3.org/1999/xlink" xml:space="preserve" style="fill-rule:evenodd;clip-rule:evenodd;stroke-linejoin:round;stroke-miterlimit:1.41421;"><rect id="Artboard1" x="0" y="0" width="2592" height="1872.84" style="fill:none;"/><clipPath id="_clip1"><rect x="0" y="0" width="2592" height="1872.84"/></clipPath><g clip-path="url(#_clip1)"><rect x="0" y="4" width="2593.33" height="1610.67" style="fill:url(#_Linear2);"/><path d="M2027,1265.77c1464.95,-249.375 2280.38,-794.948 2288.93,-570.25c8.547,224.697 -1112.3,1186.31 -2577.25,1435.68c-1464.95,249.376 -2722.82,-307.311 -2731.37,-532.009c-8.547,-224.698 1554.73,-84.048 3019.68,-333.423Z" style="fill:url(#_Linear3);"/><path d="M2057.83,1292.5c1464.95,-249.376 2286.76,-795.629 2295.3,-570.931c8.547,224.697 -1112.3,1186.31 -2577.25,1435.68c-1464.95,249.376 -2722.82,-307.311 -2731.37,-532.009c-8.546,-224.698 1548.36,-83.367 3013.31,-332.742Z" style="fill:#fff;"/><g id="elipsy"><circle cx="110" cy="24" r="904.667" style="fill:url(#_Linear4);"/><circle cx="759.667" cy="1279.83" r="868.667" style="fill:url(#_Linear5);"/></g></g><defs><linearGradient id="_Linear2" x1="0" y1="0" x2="1" y2="0" gradientUnits="userSpaceOnUse" gradientTransform="matrix(-2346.67,-1424,1424,-2346.67,2388,1481.33)"><stop offset="0%" style="stop-color:#39c9f2;stop-opacity:1"/><stop offset="100%" style="stop-color:#053cab;stop-opacity:1"/><stop offset="100%" style="stop-color:#053cab;stop-opacity:1"/></linearGradient><linearGradient id="_Linear3" x1="0" y1="0" x2="1" y2="0" gradientUnits="userSpaceOnUse" gradientTransform="matrix(-934.979,-1447.77,1738.68,-845.965,1601.8,1514.34)"><stop offset="0%" style="stop-color:#fff;stop-opacity:0"/><stop offset="100%" style="stop-color:#fff;stop-opacity:1"/></linearGradient><linearGradient id="_Linear4" x1="0" y1="0" x2="1" y2="0" gradientUnits="userSpaceOnUse" gradientTransform="matrix(814.2,1404.39,-1404.39,814.2,-187.248,-629.591)"><stop offset="0%" style="stop-color:#fff;stop-opacity:0.115942"/><stop offset="100%" style="stop-color:#fff;stop-opacity:0.0431941"/></linearGradient><linearGradient id="_Linear5" x1="0" y1="0" x2="1" y2="0" gradientUnits="userSpaceOnUse" gradientTransform="matrix(781.8,1348.5,-1348.5,781.8,474.248,652.243)"><stop offset="0%" style="stop-color:#fff;stop-opacity:0.115942"/><stop offset="100%" style="stop-color:#fff;stop-opacity:0.0431941"/></linearGradient></defs></svg>